<svg xmlns="http://www.w3.org/2000/svg" viewBox="0 0 651 594"><defs><style>.cls-1{fill:#8c6239;}.cls-1,.cls-2,.cls-3,.cls-5,.cls-6,.cls-7,.cls-8,.cls-9{stroke:#000;}.cls-1,.cls-2,.cls-3,.cls-4,.cls-5,.cls-6,.cls-7,.cls-8,.cls-9{stroke-miterlimit:10;stroke-width:4px;}.cls-2{fill:#5e5b53;}.cls-3{fill:#e9ed40;}.cls-4,.cls-5{fill:none;}.cls-4{stroke:#b2b257;}.cls-6{fill:#0c0b09;}.cls-8{fill:#a67c52;}.cls-9{fill:#ccc;}.cls-10{font-size:72px;fill:#603813;font-family:SourceCodePro-Bold, Source Code Pro;font-weight:700;}.cls-11{fill:#fcee21;letter-spacing:0em;}</style></defs><title>Artboard 1</title><g id="Box_Back" data-name="Box Back"><polygon class="cls-1" points="330 349 316 178 56 270 98 438 330 349"/><polygon class="cls-1" points="590 448 330 349 316 178 583 270 590 448"/><polygon class="cls-1" points="98 438 330 584 590 448 330 349 98 438"/></g><g id="Mrs._Banana" data-name="Mrs. Banana"><g id="Banana_nub_back" data-name="Banana nub back"><path class="cls-2" d="M214.27,176.7l4.2-13.35a15.48,15.48,0,0,1,3.67-3.52,15.19,15.19,0,0,1,9.4-2.68c.84.05,7.74.57,10.44,5.58.26.48.82,1.62,1.06,5.11.41,5.91.67,9.79-1.49,13.29-2.94,4.76-9.7,7.79-16.22,6.19C217.11,185.3,214.42,177.15,214.27,176.7Z"/></g><g id="Banana_body" data-name="Banana body"><path class="cls-3" d="M247.94,191.12a23.41,23.41,0,0,1,.88,3.25c3.27,17,8.93,85.42,14.16,110.2,9,42.56,30.63,96.76,44.59,118.94s3.87,29.66,2.69,31.06-9.5,7.27-22.52.42C192.47,408.49,155.38,288.52,204,185.7c.61-1.29,1.22-2.54,1.22-2.54a29,29,0,0,1,4.33-5.82c2.92-2.87,9.64-5.53,16.69-4.74C237.47,173.84,245.22,183.33,247.94,191.12Z"/><path class="cls-4" d="M278.32,427.58a217.26,217.26,0,0,1-60.87-91.68c-21.59-63.61-6.6-118.33-.53-137.11"/></g><g id="Banana_nub_front" data-name="Banana nub front"><path class="cls-2" d="M300.76,440.52a19,19,0,0,0-6.14,4.44c-1.06,1.19-4.88,5.5-4.08,10.4.27,1.64,1.13,3.21,2.85,6.35a17.41,17.41,0,0,0,2.23,3.57c3.29,3.29,9.25,2.2,11,1.89a17.41,17.41,0,0,0,10.31-5.88,13.42,13.42,0,0,0,3.51-8.2,12.94,12.94,0,0,0-2.27-7.55c-2.37-3.71-7-7.28-12-6.86A14.43,14.43,0,0,0,300.76,440.52Z"/></g><g id="Banana_face" data-name="Banana face"><path class="cls-5" d="M249.69,312.78a8.76,8.76,0,0,1-5-5.86,8.59,8.59,0,0,1,2.72-8.34"/><path class="cls-5" d="M217.51,315.88a8.93,8.93,0,0,0,2.4-6.27c0-3.06-1.4-5.85-3.48-6.86"/><path class="cls-5" d="M245.16,306.93c-9.35,2.61-17.71,3.55-24.72,2.19"/><ellipse class="cls-6" cx="215.69" cy="274.8" rx="5.57" ry="8.38"/><ellipse class="cls-7" cx="241.98" cy="273" rx="5.12" ry="8.38"/><path class="cls-6" d="M220.77,264a7,7,0,0,1-1.68,3.59,6.25,6.25,0,0,1-2.8,1.8"/><path class="cls-6" d="M249.34,262.23a7,7,0,0,1-1.68,3.59,6.25,6.25,0,0,1-2.8,1.8"/></g><g id="Arms"><path class="cls-5" d="M157.1,236.39a110.91,110.91,0,0,0-.45,20.5c.56,7.84,1.56,21.91,8.91,36.09,9.49,18.3,24.94,27.91,33,32.08"/><path class="cls-5" d="M144.17,236.39a17.8,17.8,0,0,0,.45,7.13c.52,1.92,1.55,5.65,4.9,8a12.37,12.37,0,0,0,12.92.45c4.9-2.8,7.39-9,5.79-15.15"/><path class="cls-5" d="M262.7,305.46c.82.06,13.83,1.08,21.83,3.12,2.33.59,5.12,1.5,7.13,4a9.66,9.66,0,0,1,1.34,2.23c2.46,6.07-4.84,14.49-5.79,15.6-1.62,1.87-6.53,7.54-11.14,8-.42,0-2,.17-2.23.89s.8,1.34,1.78,2.23a20.22,20.22,0,0,1,4,4.9c.74,1.43,1.09,3.82-.89,8"/></g></g><g id="Mr._Banana" data-name="Mr. Banana"><path id="Banana_nub_back-2" data-name="Banana nub back" class="cls-2" d="M467.7,197.62l.82-14a15.48,15.48,0,0,0-2.17-4.59,15.19,15.19,0,0,0-7.83-5.85c-.8-.25-7.44-2.22-11.74,1.5-.41.35-1.34,1.23-2.8,4.4-2.48,5.38-4.11,8.91-3.34,13,1.05,5.49,6.3,10.73,13,11.55C462,204.65,467.4,198,467.7,197.62Z"/><g id="Banana_body-2" data-name="Banana body"><path class="cls-3" d="M430.4,201a23.4,23.4,0,0,0-2,2.72c-9.11,14.76-38.73,76.65-52.44,98-23.53,36.58-63,79.53-84,95.3S277.81,423.31,278.42,425s6.29,10.17,20.89,8.4c105.59-9.56,182.94-108.49,174.08-221.87-.11-1.42-.24-2.81-.24-2.81a29,29,0,0,0-2-7c-1.71-3.72-7-8.59-13.91-10.37C446.32,188.57,435.7,194.68,430.4,201Z"/><path class="cls-4" d="M318.59,409.31a217.26,217.26,0,0,0,89.51-64c42.81-51.77,48.27-108.24,49.27-128"/><path class="cls-3" d="M394.35,288a14.81,14.81,0,0,0,13.27,7.3"/><path class="cls-3" d="M416.65,299.7a14.81,14.81,0,0,0,13.27,7.3"/></g><path id="Banana_nub_front-2" data-name="Banana nub front" class="cls-2" d="M293,413.42a19,19,0,0,1,4.15,6.34c.56,1.49,2.61,6.87.12,11.18-.83,1.44-2.19,2.6-4.92,4.92a17.41,17.41,0,0,1-3.35,2.54c-4.25,1.91-9.43-1.23-10.93-2.14a17.41,17.41,0,0,1-7.54-9.16,13.42,13.42,0,0,1-.36-8.92,12.94,12.94,0,0,1,4.8-6.25c3.54-2.62,9.17-4.3,13.68-2.13A14.43,14.43,0,0,1,293,413.42Z"/><g id="Banana_face-2" data-name="Banana face"><path class="cls-5" d="M375.9,324.39a8.76,8.76,0,0,0,7-3.29,8.59,8.59,0,0,0,.92-8.72"/><path class="cls-5" d="M404,340.34a8.93,8.93,0,0,1,.36-6.7c1.25-2.79,3.66-4.77,6-4.85"/><path class="cls-5" d="M382.41,320.9c7.47,6.2,14.72,10.46,21.68,12.07"/></g><g id="Arms-2" data-name="Arms"><path class="cls-5" d="M297.59,347.81a52.14,52.14,0,0,1,24.64-25.51c18.86-9.07,36.45-3.12,39.77-1.93"/><path class="cls-5" d="M287.72,342.32a13,13,0,0,1,12.64-8.5,12,12,0,0,1,8.05,20.69"/><path class="cls-5" d="M406.27,421.06a52.14,52.14,0,0,0,17-31.15c3-20.71-8-35.71-10.08-38.51"/><path class="cls-5" d="M414.47,428.84a13,13,0,0,0,4.32-14.61,12,12,0,0,0-22.15-1.48"/></g></g><g id="Box_Front" data-name="Box Front"><polygon class="cls-8" points="590 448 330 584 302 392 583 270 590 448"/><polygon class="cls-8" points="56 270 98 438 330 584 302 392 56 270"/></g><g id="Flaps"><polygon class="cls-8" points="7 370 229 507 302 392 56 270 7 370"/><polygon class="cls-8" points="644 367 583 270 302 392 386 499 644 367"/></g><g id="Dream_bubble" data-name="Dream bubble"><path class="cls-9" d="M349,161c-4-2-9.69-2.61-12.1.61-3,4.07-1.19,10.69,4.1,14.39h0c-6.07,2.34-9.43,9.72-7,15.52s8,6.46,14,3.48h0c2.13,8,11.48,13.22,15.71,11.28,3.42-1.57,5.74-5.53,4.29-11.28h0c7.15-.57,13.12-7,13.91-13.63C382.79,173.91,378,167.3,370,166h0a13.77,13.77,0,0,0-1.4-10.19,11,11,0,0,0-6.94-5.39,11.17,11.17,0,0,0-8.28,1.85c-4,2.44-6.38,8.73-6.38,8.73"/><path class="cls-9" d="M395.72,214.71c.48-2.45,0-5.59-2.12-6.41-2.64-1-5.92.94-7.13,4.33h0a6.82,6.82,0,0,0-9.37-1.46c-2.82,2.22-2.28,5.27.2,8h0c-4,2.32-5.41,8.12-3.74,10.11,1.35,1.61,3.82,2.27,6.7.64h0a8.92,8.92,0,0,0,9.38,5.46,7.65,7.65,0,0,0,6.5-8.67h0a7.68,7.68,0,0,0,5.27-2.26,6.13,6.13,0,0,0,1.87-4.53,6.23,6.23,0,0,0-2.22-4.18c-1.9-1.78-5.64-2.14-5.64-2.14"/><path class="cls-9" d="M388.87,65.16c13.07-10.51,20.69-22.63,10.55-31.39-12.8-11.06-42-9.28-63.55,4h0C333.87,18.91,308,5.14,281.41,9,254.21,13,245.25,28.8,250,47.69h0c-35,1.81-67.9,26.05-65.25,39.4,2.14,10.79,15.39,19.67,40.56,18.59h0c-6.51,21,12.09,41.86,38.24,47.8,29.23,6.63,62.05-3.74,77.19-26.14h0c3.13,1.23,21.19,6.85,43.15,1.53,4.13-1,21.39-5.18,30.48-17.19,8.21-10.85,4.31-20.89,2.71-25-5-12.91-27.62-23.28-27.62-23.28"/><g id="Text"><text class="cls-10" transform="translate(228.6 108.61)">[<tspan class="cls-11" x="43.2" y="0">()</tspan><tspan x="129.6" y="0">]</tspan></text></g></g></svg>