<svg id="Layer_1" data-name="Layer 1" xmlns="http://www.w3.org/2000/svg" viewBox="0 0 208 208"><defs><style>.cls-1,.cls-2{fill:none;stroke-width:5px;fill-rule:evenodd;}.cls-1,.cls-3{stroke:#ff6021;}.cls-1,.cls-2,.cls-3{stroke-linecap:round;stroke-linejoin:round;}.cls-2{stroke:#91a3db;}.cls-3{fill:#ff6021;stroke-width:2px;}</style></defs><title>Artboard 1</title><path class="cls-1" d="M55,67.86s8,1.75,25.46-6.64S104,41.55,104,41.55s6.12,11.27,23.56,19.67,27.27,6.4,27.27,6.4"/><path class="cls-1" d="M159.32,105.92c4.87,15.1,11.57,19.5,11.57,19.5s-12.36,3.46-24.42,18.6S133.77,172,133.77,172s-10.41-7.49-29.77-7.49S74.24,172,74.24,172,73.62,159.13,61.54,144s-24.42-18.6-24.42-18.6,6.72-5.14,11.55-19.5"/><path class="cls-2" d="M71.56,77.4C29.84,60.69,10.73,14.7,6.49,35.23,2,57.11,29.64,69.79,29.64,69.79S10.69,59,11.17,71.42c.52,13.44,21.93,18,21.93,18s-16.4-2.58-12.58,8.4c4.67,13.44,15.1.53,36.41,11.39"/><path class="cls-2" d="M136,78.07c41.72-16.72,61.27-63.38,65.51-42.84,4.52,21.88-23.15,34.56-23.15,34.56s19-10.78,18.47,1.63c-.52,13.44-21.93,18-21.93,18s16.39-2.58,12.58,8.4c-4.67,13.44-16.66.53-38,11.39"/><circle class="cls-3" cx="103.43" cy="110.72" r="46.12"/></svg>