<svg id="Layer_1" data-name="Layer 1" xmlns="http://www.w3.org/2000/svg" viewBox="0 0 200 200"><defs><style>.cls-1,.cls-2{fill:none;stroke:#ff6021;stroke-linecap:round;stroke-linejoin:round;stroke-width:2px;}.cls-1{fill-rule:evenodd;}</style></defs><title>Artboard 1</title><path class="cls-1" d="M67.56,76.4C25.84,59.69,6.73,13.7,2.49,34.23-2,56.11,25.64,68.79,25.64,68.79S6.69,58,7.17,70.42c.52,13.44,21.93,18,21.93,18s-16.4-2.58-12.58,8.4c4.67,13.44,15.1.53,36.41,11.39"/><path class="cls-1" d="M132,77.07c41.72-16.72,61.27-63.38,65.51-42.84,4.52,21.88-23.15,34.56-23.15,34.56s19-10.78,18.47,1.63c-.52,13.44-21.93,18-21.93,18s16.39-2.58,12.58,8.4c-4.67,13.44-16.66.53-38,11.39"/><circle class="cls-2" cx="99.43" cy="109.72" r="46.12"/><path class="cls-1" d="M51,66.86s8,1.75,25.46-6.64S100,40.55,100,40.55s6.12,11.27,23.56,19.67,27.27,6.4,27.27,6.4"/><path class="cls-1" d="M155.32,104.92c4.87,15.1,11.57,19.5,11.57,19.5s-12.36,3.46-24.42,18.6S129.77,171,129.77,171s-10.41-7.49-29.77-7.49S70.24,171,70.24,171,69.62,158.13,57.54,143s-24.42-18.6-24.42-18.6,6.72-5.14,11.55-19.5"/></svg>