<?xml version="1.0" encoding="utf-8"?>
<!-- Generator: Adobe Illustrator 21.1.0, SVG Export Plug-In . SVG Version: 6.00 Build 0)  -->
<svg version="1.1"
	 id="svg2" xmlns:cc="http://creativecommons.org/ns#" xmlns:dc="http://purl.org/dc/elements/1.1/" xmlns:rdf="http://www.w3.org/1999/02/22-rdf-syntax-ns#" xmlns:svg="http://www.w3.org/2000/svg"
	 xmlns="http://www.w3.org/2000/svg" xmlns:xlink="http://www.w3.org/1999/xlink" x="0px" y="0px" viewBox="0 0 80 80"
	 style="enable-background:new 0 0 80 80;" xml:space="preserve">
<style type="text/css">
	.st0{fill:#ED163A;}
	.st1{fill:#D51C2F;}
	.st2{fill:#F5F5F5;}
</style>
<g id="g10" transform="matrix(1.3333333,0,0,-1.3333333,0,89.2)">
	<g id="g12" transform="scale(0.1)">
		<path id="path88" class="st0" d="M600,369c0-165.7-134.3-300-300-300C134.3,69,0,203.3,0,369c0,165.7,134.3,300,300,300
			C465.7,669,600,534.7,600,369"/>
		<path id="path90" class="st1" d="M454.9,513.7l-102,0.9l-59.7,59.7l-70-46.5l12.1-12.1l-28.4,0.3l-96.3-162H72.8l23.7-23.7
			l-23.9-40.2l221-221c2.1,0,4.3-0.1,6.4-0.1c165.5,0,299.7,134.1,300,299.6L454.9,513.7"/>
		<path id="path92" class="st2" d="M152.2,347.1c0,81.6,66.2,147.8,147.8,147.8c81.6,0,147.8-66.2,147.8-147.8H152.2z M484.5,340.3
			v13.6h42.8c-1.7,57.6-24.8,109.9-61.7,149l-31.9-32l-9.6,9.7l31.9,31.9c-39.2,36.9-91.4,60-149,61.7l0-42.7h-13.6v42.7
			c-57.6-1.7-109.9-24.8-149-61.7l31.9-31.9l-9.7-9.6L134.5,503c-36.9-39.2-60-91.4-61.7-149h42.7l0-13.6H72.6v-50h454.8v50H484.5"
			/>
	</g>
</g>
</svg>
